<mxfile host="app.diagrams.net" modified="2021-11-21T07:14:52.501Z" agent="5.0 (X11; Linux x86_64) AppleWebKit/537.36 (KHTML, like Gecko) Chrome/95.0.4638.69 Safari/537.36" etag="9tMGaxeV3-W4zbB50aMX" version="14.8.1" type="github">
  <diagram id="mjgqmSHZGCYBxVDJmJig" name="Page-1">
    <mxGraphModel dx="1447" dy="728" grid="1" gridSize="10" guides="1" tooltips="1" connect="1" arrows="1" fold="1" page="1" pageScale="2" pageWidth="827" pageHeight="1169" math="0" shadow="0">
      <root>
        <mxCell id="0" />
        <mxCell id="1" parent="0" />
        <mxCell id="FAwiAq0qkd5cn3caJAeM-113" value="" style="rounded=0;whiteSpace=wrap;html=1;fontSize=25;fontStyle=0" parent="1" vertex="1">
          <mxGeometry x="836.09" y="670" width="340" height="313" as="geometry" />
        </mxCell>
        <mxCell id="FAwiAq0qkd5cn3caJAeM-114" style="rounded=0;orthogonalLoop=1;jettySize=auto;html=1;exitX=0.5;exitY=1;exitDx=0;exitDy=0;entryX=0.228;entryY=0;entryDx=0;entryDy=0;entryPerimeter=0;fontSize=25;startArrow=blockThin;startFill=1;endArrow=classicThin;endFill=1;strokeWidth=1;fontStyle=0" parent="1" source="FAwiAq0qkd5cn3caJAeM-115" target="FAwiAq0qkd5cn3caJAeM-123" edge="1">
          <mxGeometry relative="1" as="geometry" />
        </mxCell>
        <mxCell id="FAwiAq0qkd5cn3caJAeM-115" value="" style="whiteSpace=wrap;html=1;aspect=fixed;fontStyle=0;fontSize=25;" parent="1" vertex="1">
          <mxGeometry x="856.09" y="683" width="133.91" height="133.91" as="geometry" />
        </mxCell>
        <mxCell id="FAwiAq0qkd5cn3caJAeM-116" value="L2" style="rounded=0;whiteSpace=wrap;html=1;fontSize=25;fillColor=#ffe6cc;strokeColor=#d79b00;fontStyle=0" parent="1" vertex="1">
          <mxGeometry x="866.0899999999999" y="763" width="110" height="30" as="geometry" />
        </mxCell>
        <mxCell id="FAwiAq0qkd5cn3caJAeM-117" value="&lt;font style=&quot;font-size: 25px;&quot;&gt;L1 D&lt;/font&gt;" style="rounded=0;whiteSpace=wrap;html=1;fontSize=25;fillColor=#ffe6cc;strokeColor=#d79b00;fontStyle=0" parent="1" vertex="1">
          <mxGeometry x="923.09" y="713" width="63.91" height="30" as="geometry" />
        </mxCell>
        <mxCell id="FAwiAq0qkd5cn3caJAeM-118" value="&lt;font style=&quot;font-size: 25px;&quot;&gt;L1 I&lt;/font&gt;" style="rounded=0;whiteSpace=wrap;html=1;fontSize=25;fillColor=#ffe6cc;strokeColor=#d79b00;fontStyle=0" parent="1" vertex="1">
          <mxGeometry x="862.0899999999999" y="713" width="50" height="30" as="geometry" />
        </mxCell>
        <mxCell id="FAwiAq0qkd5cn3caJAeM-119" value="" style="whiteSpace=wrap;html=1;aspect=fixed;fontStyle=0;fontSize=25;" parent="1" vertex="1">
          <mxGeometry x="1016.09" y="683" width="137" height="137" as="geometry" />
        </mxCell>
        <mxCell id="FAwiAq0qkd5cn3caJAeM-120" value="L2" style="rounded=0;whiteSpace=wrap;html=1;fontSize=25;fillColor=#ffe6cc;strokeColor=#d79b00;fontStyle=0" parent="1" vertex="1">
          <mxGeometry x="1026.0900000000001" y="763" width="110" height="30" as="geometry" />
        </mxCell>
        <mxCell id="FAwiAq0qkd5cn3caJAeM-121" value="&lt;font style=&quot;font-size: 25px;&quot;&gt;L1 D&lt;/font&gt;" style="rounded=0;whiteSpace=wrap;html=1;fontSize=25;fillColor=#ffe6cc;strokeColor=#d79b00;fontStyle=0" parent="1" vertex="1">
          <mxGeometry x="1078.09" y="713" width="63.91" height="30" as="geometry" />
        </mxCell>
        <mxCell id="FAwiAq0qkd5cn3caJAeM-122" value="&lt;font style=&quot;font-size: 25px;&quot;&gt;L1 I&lt;/font&gt;" style="rounded=0;whiteSpace=wrap;html=1;fontSize=25;fillColor=#ffe6cc;strokeColor=#d79b00;fontStyle=0" parent="1" vertex="1">
          <mxGeometry x="1021.0900000000001" y="713" width="50" height="30" as="geometry" />
        </mxCell>
        <mxCell id="FAwiAq0qkd5cn3caJAeM-123" value="LLC" style="rounded=0;whiteSpace=wrap;html=1;fontSize=25;fillColor=#ffe6cc;strokeColor=#d79b00;fontStyle=0" parent="1" vertex="1">
          <mxGeometry x="856.0899999999999" y="843" width="290" height="50" as="geometry" />
        </mxCell>
        <mxCell id="FAwiAq0qkd5cn3caJAeM-124" value="NVM" style="rounded=0;whiteSpace=wrap;html=1;fontSize=25;fillColor=#dae8fc;strokeColor=#6c8ebf;fontStyle=0" parent="1" vertex="1">
          <mxGeometry x="836.0899999999999" y="1008" width="340" height="80" as="geometry" />
        </mxCell>
        <mxCell id="FAwiAq0qkd5cn3caJAeM-125" style="edgeStyle=none;rounded=0;orthogonalLoop=1;jettySize=auto;html=1;exitX=0.5;exitY=1;exitDx=0;exitDy=0;fontSize=25;startArrow=blockThin;startFill=1;endArrow=classicThin;endFill=1;strokeWidth=1;fontStyle=0" parent="1" source="FAwiAq0qkd5cn3caJAeM-126" edge="1">
          <mxGeometry relative="1" as="geometry">
            <mxPoint x="1001.0900000000001" y="1013" as="targetPoint" />
          </mxGeometry>
        </mxCell>
        <mxCell id="FAwiAq0qkd5cn3caJAeM-126" value="MC" style="rounded=0;whiteSpace=wrap;html=1;fontSize=25;fillColor=#dae8fc;strokeColor=#6c8ebf;fontStyle=0" parent="1" vertex="1">
          <mxGeometry x="856.0899999999999" y="923" width="290" height="40" as="geometry" />
        </mxCell>
        <mxCell id="FAwiAq0qkd5cn3caJAeM-127" value="WPQ" style="rounded=0;whiteSpace=wrap;html=1;fontSize=25;fillColor=#f8cecc;strokeColor=#b85450;fontStyle=0" parent="1" vertex="1">
          <mxGeometry x="1046.0900000000001" y="933" width="90" height="20" as="geometry" />
        </mxCell>
        <mxCell id="FAwiAq0qkd5cn3caJAeM-128" style="rounded=0;orthogonalLoop=1;jettySize=auto;html=1;exitX=0.5;exitY=1;exitDx=0;exitDy=0;entryX=0.228;entryY=0;entryDx=0;entryDy=0;entryPerimeter=0;fontSize=25;startArrow=blockThin;startFill=1;endArrow=classicThin;endFill=1;strokeWidth=1;fontStyle=0" parent="1" edge="1">
          <mxGeometry relative="1" as="geometry">
            <mxPoint x="1080.5299999999997" y="813" as="sourcePoint" />
            <mxPoint x="1081.6499999999996" y="843" as="targetPoint" />
          </mxGeometry>
        </mxCell>
        <mxCell id="FAwiAq0qkd5cn3caJAeM-129" style="rounded=0;orthogonalLoop=1;jettySize=auto;html=1;exitX=0.5;exitY=1;exitDx=0;exitDy=0;entryX=0.228;entryY=0;entryDx=0;entryDy=0;entryPerimeter=0;fontSize=25;startArrow=blockThin;startFill=1;endArrow=classicThin;endFill=1;strokeWidth=1;fontStyle=0" parent="1" edge="1">
          <mxGeometry relative="1" as="geometry">
            <mxPoint x="1000.0900000000001" y="893" as="sourcePoint" />
            <mxPoint x="1001.21" y="923" as="targetPoint" />
          </mxGeometry>
        </mxCell>
        <mxCell id="FAwiAq0qkd5cn3caJAeM-132" value="1" style="rounded=0;whiteSpace=wrap;html=1;fontSize=25;align=center;fontStyle=0" parent="1" vertex="1">
          <mxGeometry x="896.0899999999999" y="1038" width="40" height="20" as="geometry" />
        </mxCell>
        <mxCell id="FAwiAq0qkd5cn3caJAeM-133" value="A" style="text;html=1;strokeColor=none;fillColor=none;align=center;verticalAlign=middle;whiteSpace=wrap;rounded=0;fontSize=25;fontStyle=0" parent="1" vertex="1">
          <mxGeometry x="866.0899999999999" y="1038" width="40" height="20" as="geometry" />
        </mxCell>
        <mxCell id="rw0pJkleUwbmweoXINBP-7" value="" style="rounded=0;whiteSpace=wrap;html=1;fontSize=25;strokeWidth=2;strokeColor=#666666;fontColor=#333333;fontStyle=0;fillColor=none;dashed=1;" parent="1" vertex="1">
          <mxGeometry x="834.0899999999999" y="898.5" width="385" height="210" as="geometry" />
        </mxCell>
        <mxCell id="rw0pJkleUwbmweoXINBP-8" value="persistent domain" style="text;html=1;strokeColor=none;fillColor=none;align=center;verticalAlign=middle;whiteSpace=wrap;rounded=0;fontSize=25;rotation=270;fontStyle=0;fontFamily=Helvetica;" parent="1" vertex="1">
          <mxGeometry x="1078.96" y="989" width="226.63" height="20" as="geometry" />
        </mxCell>
      </root>
    </mxGraphModel>
  </diagram>
</mxfile>
